<svg width="302" height="267" viewBox="0 0 302 267" fill="none" xmlns="http://www.w3.org/2000/svg">
<path d="M200.755 150.208C175.091 150.208 154.287 129.372 154.287 103.67C154.287 77.9668 175.091 57.1315 200.755 57.1315C226.419 57.1315 247.223 77.9668 247.223 103.67C247.223 129.372 226.419 150.208 200.755 150.208Z" fill="white"/>
<path d="M135.383 61.3063H200.756V150.218H135.383V61.3063Z" fill="white"/>
<path d="M129.753 150.208C88.3394 150.208 54.7666 116.584 54.7666 75.0991C54.7666 33.6136 88.3394 0 129.753 0C171.166 0 204.739 33.6234 204.739 75.0991C204.739 116.575 171.166 150.198 129.753 150.198V150.208Z" fill="white"/>
<path d="M200.755 150.208C175.091 150.208 154.287 129.372 154.287 103.67C154.287 77.9668 175.091 57.1315 200.755 57.1315C226.419 57.1315 247.223 77.9668 247.223 103.67C247.223 129.372 226.419 150.208 200.755 150.208Z" fill="url(#paint0_radial_209_1609)"/>
<path d="M87.3851 110.498C92.1832 110.498 96.0729 106.602 96.0729 101.797C96.0729 96.9914 92.1832 93.0959 87.3851 93.0959C82.5869 93.0959 78.6973 96.9914 78.6973 101.797C78.6973 106.602 82.5869 110.498 87.3851 110.498Z" fill="#333333"/>
<path d="M126.695 110.498C131.493 110.498 135.382 106.602 135.382 101.797C135.382 96.9914 131.493 93.0959 126.695 93.0959C121.897 93.0959 118.007 96.9914 118.007 101.797C118.007 106.602 121.897 110.498 126.695 110.498Z" fill="#333333"/>
<path fill-rule="evenodd" clip-rule="evenodd" d="M99.7207 112.907C99.7207 108.867 102.99 105.578 107.04 105.578C111.078 105.578 114.359 108.855 114.359 112.907V114.243C114.359 114.892 113.834 115.417 113.186 115.417C112.538 115.417 112.012 114.892 112.012 114.243V112.907C112.012 110.15 109.781 107.926 107.04 107.926C104.292 107.926 102.068 110.158 102.068 112.907V114.243C102.068 114.892 101.542 115.417 100.894 115.417C100.246 115.417 99.7207 114.892 99.7207 114.243V112.907Z" fill="#333333"/>
<path d="M75.9701 181.626C77.8577 165.57 125.235 183.617 142.71 176.423C176.417 162.547 220.002 186.704 262.034 186.704C291.359 186.704 310.235 203.182 298.437 220.896C287.002 238.066 233.326 222.882 209.113 251.003C192.26 270.577 130.032 271.774 119.115 255.585C109.677 241.587 3.83718 246.417 0.129395 224.117C-3.57839 201.818 73.6106 201.696 75.9701 181.626Z" fill="#5C6BC0"/>
<path d="M75.9701 181.626C77.8577 165.57 125.235 183.617 142.71 176.423C176.417 162.547 220.002 186.704 262.034 186.704C291.359 186.704 310.235 203.182 298.437 220.896C287.002 238.066 233.326 222.882 209.113 251.003C192.26 270.577 130.032 271.774 119.115 255.585C109.677 241.587 3.83718 246.417 0.129395 224.117C-3.57839 201.818 73.6106 201.696 75.9701 181.626Z" fill="url(#paint1_linear_209_1609)"/>
<g clip-path="url(#clip0_209_1609)">
<path d="M175.904 156.477L178.329 172.39C179.096 177.421 174.448 181.583 169.535 180.261C164.622 178.947 162.674 173.016 165.85 169.05L175.904 156.477Z" fill="#90CAF9"/>
<path d="M165.85 169.05C162.674 173.024 164.622 178.947 169.535 180.269C174.448 181.583 179.096 177.421 178.329 172.398L175.904 156.477L165.85 169.05Z" fill="url(#paint2_linear_209_1609)"/>
</g>
<g clip-path="url(#clip1_209_1609)">
<path d="M167.186 190.119L168.934 202.034C169.486 205.8 166.137 208.916 162.596 207.927C159.056 206.942 157.652 202.502 159.941 199.532L167.186 190.119Z" fill="#90CAF9"/>
<path d="M159.941 199.532C157.652 202.508 159.056 206.942 162.596 207.932C166.137 208.916 169.486 205.8 168.934 202.04L167.186 190.119L159.941 199.532Z" fill="url(#paint3_linear_209_1609)"/>
</g>
<g clip-path="url(#clip2_209_1609)">
<path d="M209.546 156.477L211.972 172.39C212.738 177.421 208.091 181.583 203.178 180.261C198.264 178.947 196.316 173.016 199.493 169.05L209.546 156.477Z" fill="#90CAF9"/>
<path d="M199.493 169.05C196.316 173.024 198.264 178.947 203.178 180.269C208.091 181.583 212.738 177.421 211.972 172.398L209.546 156.477L199.493 169.05Z" fill="url(#paint4_linear_209_1609)"/>
</g>
<g clip-path="url(#clip3_209_1609)">
<path d="M192.865 190.119L194.747 202.034C195.342 205.8 191.736 208.916 187.923 207.927C184.11 206.942 182.598 202.502 185.063 199.532L192.865 190.119Z" fill="#90CAF9"/>
<path d="M185.063 199.532C182.598 202.508 184.11 206.942 187.923 207.932C191.736 208.916 195.342 205.8 194.747 202.04L192.865 190.119L185.063 199.532Z" fill="url(#paint5_linear_209_1609)"/>
</g>
<g clip-path="url(#clip4_209_1609)">
<path d="M141.479 156.477L143.904 172.39C144.671 177.421 140.024 181.583 135.11 180.261C130.197 178.947 128.249 173.016 131.425 169.05L141.479 156.477Z" fill="#90CAF9"/>
<path d="M131.425 169.05C128.249 173.024 130.197 178.947 135.11 180.269C140.024 181.583 144.671 177.421 143.904 172.398L141.479 156.477L131.425 169.05Z" fill="url(#paint6_linear_209_1609)"/>
</g>
<g clip-path="url(#clip5_209_1609)">
<path d="M141.366 190.119L143.114 202.034C143.667 205.8 140.318 208.916 136.777 207.927C133.236 206.942 131.833 202.502 134.122 199.532L141.366 190.119Z" fill="#90CAF9"/>
<path d="M134.122 199.532C131.833 202.508 133.236 206.942 136.777 207.932C140.318 208.916 143.667 205.8 143.114 202.04L141.366 190.119L134.122 199.532Z" fill="url(#paint7_linear_209_1609)"/>
</g>
<g clip-path="url(#clip6_209_1609)">
<path d="M107.836 156.477L110.262 172.39C111.028 177.421 106.381 181.583 101.468 180.261C96.5543 178.947 94.6061 173.016 97.7826 169.05L107.836 156.477Z" fill="#90CAF9"/>
<path d="M97.7826 169.05C94.6061 173.024 96.5543 178.947 101.468 180.269C106.381 181.583 111.028 177.421 110.262 172.398L107.836 156.477L97.7826 169.05Z" fill="url(#paint8_linear_209_1609)"/>
</g>
<g clip-path="url(#clip7_209_1609)">
<path d="M116.191 190.119L118.073 202.034C118.668 205.8 115.062 208.916 111.249 207.927C107.436 206.942 105.924 202.502 108.389 199.532L116.191 190.119Z" fill="#90CAF9"/>
<path d="M108.389 199.532C105.924 202.508 107.436 206.942 111.249 207.932C115.062 208.916 118.668 205.8 118.073 202.04L116.191 190.119L108.389 199.532Z" fill="url(#paint9_linear_209_1609)"/>
</g>
<defs>
<radialGradient id="paint0_radial_209_1609" cx="0" cy="0" r="1" gradientUnits="userSpaceOnUse" gradientTransform="translate(231.225 134.276) rotate(-138.197) scale(113.055 113.074)">
<stop stop-color="white" stop-opacity="0"/>
<stop offset="0.95" stop-color="#757575" stop-opacity="0.32"/>
</radialGradient>
<linearGradient id="paint1_linear_209_1609" x1="151" y1="172.124" x2="151" y2="266.793" gradientUnits="userSpaceOnUse">
<stop stop-color="#3F51B5"/>
<stop offset="1" stop-color="#90CAF9" stop-opacity="0"/>
</linearGradient>
<linearGradient id="paint2_linear_209_1609" x1="163.268" y1="190.988" x2="185.198" y2="143.434" gradientUnits="userSpaceOnUse">
<stop stop-color="#3F51B5" stop-opacity="0.4"/>
<stop offset="1" stop-color="#90CAF9" stop-opacity="0"/>
</linearGradient>
<linearGradient id="paint3_linear_209_1609" x1="158.08" y1="215.957" x2="174.905" y2="180.844" gradientUnits="userSpaceOnUse">
<stop stop-color="#3F51B5" stop-opacity="0.4"/>
<stop offset="1" stop-color="#90CAF9" stop-opacity="0"/>
</linearGradient>
<linearGradient id="paint4_linear_209_1609" x1="196.911" y1="190.988" x2="218.841" y2="143.434" gradientUnits="userSpaceOnUse">
<stop stop-color="#3F51B5" stop-opacity="0.4"/>
<stop offset="1" stop-color="#90CAF9" stop-opacity="0"/>
</linearGradient>
<linearGradient id="paint5_linear_209_1609" x1="183.059" y1="215.957" x2="199.094" y2="179.917" gradientUnits="userSpaceOnUse">
<stop stop-color="#3F51B5" stop-opacity="0.4"/>
<stop offset="1" stop-color="#90CAF9" stop-opacity="0"/>
</linearGradient>
<linearGradient id="paint6_linear_209_1609" x1="128.843" y1="190.988" x2="150.774" y2="143.434" gradientUnits="userSpaceOnUse">
<stop stop-color="#3F51B5" stop-opacity="0.4"/>
<stop offset="1" stop-color="#90CAF9" stop-opacity="0"/>
</linearGradient>
<linearGradient id="paint7_linear_209_1609" x1="132.261" y1="215.957" x2="149.085" y2="180.844" gradientUnits="userSpaceOnUse">
<stop stop-color="#3F51B5" stop-opacity="0.4"/>
<stop offset="1" stop-color="#90CAF9" stop-opacity="0"/>
</linearGradient>
<linearGradient id="paint8_linear_209_1609" x1="95.2008" y1="190.988" x2="117.131" y2="143.434" gradientUnits="userSpaceOnUse">
<stop stop-color="#3F51B5" stop-opacity="0.4"/>
<stop offset="1" stop-color="#90CAF9" stop-opacity="0"/>
</linearGradient>
<linearGradient id="paint9_linear_209_1609" x1="106.385" y1="215.957" x2="122.42" y2="179.917" gradientUnits="userSpaceOnUse">
<stop stop-color="#3F51B5" stop-opacity="0.4"/>
<stop offset="1" stop-color="#90CAF9" stop-opacity="0"/>
</linearGradient>
<clipPath id="clip0_209_1609">
<rect width="14.1142" height="24.0348" fill="white" transform="translate(164.301 156.477)"/>
</clipPath>
<clipPath id="clip1_209_1609">
<rect width="10.171" height="17.9948" fill="white" transform="translate(158.824 190.119)"/>
</clipPath>
<clipPath id="clip2_209_1609">
<rect width="14.1142" height="24.0348" fill="white" transform="translate(197.943 156.477)"/>
</clipPath>
<clipPath id="clip3_209_1609">
<rect width="10.9534" height="17.9948" fill="white" transform="translate(183.86 190.119)"/>
</clipPath>
<clipPath id="clip4_209_1609">
<rect width="14.1142" height="24.0348" fill="white" transform="translate(129.876 156.477)"/>
</clipPath>
<clipPath id="clip5_209_1609">
<rect width="10.171" height="17.9948" fill="white" transform="translate(133.005 190.119)"/>
</clipPath>
<clipPath id="clip6_209_1609">
<rect width="14.1142" height="24.0348" fill="white" transform="translate(96.2334 156.477)"/>
</clipPath>
<clipPath id="clip7_209_1609">
<rect width="10.9534" height="17.9948" fill="white" transform="translate(107.187 190.119)"/>
</clipPath>
</defs>
</svg>
