<svg width="24" height="24" viewBox="0 0 24 24" fill="none" xmlns="http://www.w3.org/2000/svg">
<path d="M12.275 19C12.475 18.9833 12.646 18.9043 12.788 18.763C12.9293 18.621 13 18.45 13 18.25C13 18.0167 12.925 17.8293 12.775 17.688C12.625 17.546 12.4333 17.4833 12.2 17.5C11.5167 17.55 10.7917 17.3627 10.025 16.938C9.25833 16.5127 8.775 15.7417 8.575 14.625C8.54167 14.4417 8.454 14.2917 8.312 14.175C8.17067 14.0583 8.00833 14 7.825 14C7.59167 14 7.4 14.0873 7.25 14.262C7.1 14.4373 7.05 14.6417 7.1 14.875C7.38333 16.3917 8.05 17.475 9.1 18.125C10.15 18.775 11.2083 19.0667 12.275 19ZM12 22C9.71667 22 7.81267 21.2167 6.288 19.65C4.76267 18.0833 4 16.1333 4 13.8C4 12.1333 4.66267 10.321 5.988 8.363C7.31267 6.40433 9.31667 4.28333 12 2C14.6833 4.28333 16.6877 6.40433 18.013 8.363C19.3377 10.321 20 12.1333 20 13.8C20 16.1333 19.2373 18.0833 17.712 19.65C16.1873 21.2167 14.2833 22 12 22Z" fill="#212121"/>
</svg>
