<svg width="153" height="28" viewBox="0 0 153 28" fill="none" xmlns="http://www.w3.org/2000/svg">
<path d="M0 4.8172C0 2.15674 2.15674 0 4.8172 0H23.1828C25.8433 0 28 2.15674 28 4.8172V23.1828C28 25.8433 25.8433 28 23.1828 28H4.8172C2.15674 28 0 25.8433 0 23.1828V4.8172Z" fill="url(#paint0_linear_108_454)"/>
<path d="M22.3996 14C22.3996 18.6392 18.6388 22.4 13.9996 22.4C9.36042 22.4 5.59961 18.6392 5.59961 14C5.59961 9.36081 9.36042 5.60001 13.9996 5.60001C18.6388 5.60001 22.3996 9.36081 22.3996 14Z" fill="url(#paint1_linear_108_454)"/>
<path d="M44.0084 17.2102V7.27121H45.8593V17.2102C45.8593 18.1356 45.6697 18.9165 45.2905 19.5527C44.9113 20.1889 44.3875 20.6742 43.7192 21.0084C43.0572 21.3361 42.2956 21.5 41.4344 21.5C40.5733 21.5 39.8085 21.3522 39.1401 21.0566C38.4717 20.7609 37.9479 20.3111 37.5688 19.7069C37.1896 19.1028 37 18.3413 37 17.4222H38.8605C38.8605 18.0135 38.9698 18.4987 39.1883 18.8779C39.4068 19.2571 39.7089 19.5366 40.0945 19.7166C40.4865 19.8965 40.9332 19.9865 41.4344 19.9865C41.9229 19.9865 42.3599 19.8837 42.7455 19.678C43.1375 19.4659 43.446 19.1542 43.671 18.7429C43.8959 18.3252 44.0084 17.8143 44.0084 17.2102Z" fill="#212121" fill-opacity="0.87"/>
<path d="M55.1234 18.8972V10.8766H56.9165V21.3072H55.2102L55.1234 18.8972ZM55.4608 16.6992L56.2031 16.6799C56.2031 17.374 56.1292 18.0167 55.9814 18.608C55.84 19.1928 55.6086 19.7005 55.2873 20.1311C54.9659 20.5617 54.545 20.8991 54.0244 21.1433C53.5039 21.3811 52.8708 21.5 52.1253 21.5C51.6176 21.5 51.1517 21.4261 50.7275 21.2783C50.3098 21.1305 49.9499 20.9023 49.6478 20.5938C49.3458 20.2853 49.1112 19.8837 48.9441 19.3888C48.7834 18.894 48.7031 18.2995 48.7031 17.6054V10.8766H50.4865V17.6247C50.4865 18.0938 50.5379 18.4826 50.6407 18.7911C50.75 19.0932 50.8946 19.3342 51.0746 19.5141C51.2609 19.6877 51.4666 19.8098 51.6915 19.8805C51.9229 19.9512 52.1607 19.9865 52.4049 19.9865C53.1632 19.9865 53.7641 19.8419 54.2076 19.5527C54.651 19.2571 54.9692 18.8618 55.162 18.367C55.3612 17.8657 55.4608 17.3098 55.4608 16.6992Z" fill="#212121" fill-opacity="0.87"/>
<path d="M65.7082 18.5405C65.7082 18.2834 65.6504 18.0456 65.5347 17.8271C65.4255 17.6022 65.1973 17.3997 64.8503 17.2198C64.5096 17.0334 63.9955 16.8728 63.3078 16.7378C62.7294 16.6157 62.2057 16.4711 61.7365 16.304C61.2738 16.1369 60.8785 15.9344 60.5508 15.6967C60.2294 15.4589 59.982 15.1793 59.8085 14.858C59.635 14.5366 59.5482 14.1607 59.5482 13.7301C59.5482 13.3188 59.6382 12.9299 59.8181 12.5636C60.0045 12.1973 60.2648 11.8728 60.599 11.59C60.9396 11.3072 61.3477 11.0855 61.8233 10.9248C62.2988 10.7641 62.829 10.6838 63.4139 10.6838C64.2494 10.6838 64.9627 10.8316 65.554 11.1272C66.1452 11.4229 66.5983 11.8181 66.9132 12.313C67.2282 12.8014 67.3856 13.3445 67.3856 13.9422H65.6022C65.6022 13.653 65.5154 13.3734 65.3419 13.1035C65.1748 12.8271 64.9274 12.599 64.5996 12.419C64.2783 12.2391 63.883 12.1491 63.4139 12.1491C62.919 12.1491 62.5174 12.2262 62.2089 12.3805C61.9068 12.5283 61.6851 12.7179 61.5437 12.9492C61.4087 13.1806 61.3413 13.4248 61.3413 13.6819C61.3413 13.8747 61.3734 14.0482 61.4377 14.2024C61.5084 14.3503 61.6305 14.4884 61.804 14.617C61.9775 14.7391 62.2217 14.8548 62.5366 14.964C62.8515 15.0733 63.2532 15.1825 63.7416 15.2918C64.5964 15.4846 65.3001 15.7159 65.8528 15.9859C66.4055 16.2558 66.8168 16.5868 67.0868 16.9788C67.3567 17.3708 67.4916 17.8464 67.4916 18.4055C67.4916 18.8618 67.3952 19.2796 67.2024 19.6587C67.0161 20.0379 66.7429 20.3657 66.383 20.642C66.0296 20.912 65.6054 21.124 65.1105 21.2783C64.6221 21.4261 64.0726 21.5 63.4621 21.5C62.5431 21.5 61.7654 21.3361 61.1292 21.0084C60.4929 20.6806 60.0109 20.2564 59.6832 19.7359C59.3554 19.2153 59.1915 18.6658 59.1915 18.0874H60.9846C61.0103 18.5758 61.1517 18.9647 61.4087 19.2539C61.6658 19.5366 61.9807 19.7391 62.3535 19.8612C62.7262 19.9769 63.0958 20.0347 63.4621 20.0347C63.9505 20.0347 64.3586 19.9704 64.6864 19.8419C65.0206 19.7134 65.2744 19.5366 65.4479 19.3117C65.6215 19.0868 65.7082 18.8297 65.7082 18.5405Z" fill="#212121" fill-opacity="0.87"/>
<path d="M74.2012 10.8766V12.2455H68.5617V10.8766H74.2012ZM70.4704 8.34126H72.2539V18.7237C72.2539 19.0771 72.3085 19.3438 72.4177 19.5238C72.527 19.7037 72.6684 19.8226 72.8419 19.8805C73.0154 19.9383 73.2018 19.9672 73.401 19.9672C73.5488 19.9672 73.7031 19.9544 73.8638 19.9287C74.0308 19.8965 74.1562 19.8708 74.2397 19.8515L74.2494 21.3072C74.108 21.3522 73.9216 21.394 73.6902 21.4325C73.4653 21.4775 73.1922 21.5 72.8708 21.5C72.4338 21.5 72.0321 21.4132 71.6658 21.2397C71.2995 21.0662 71.0071 20.777 70.7886 20.3721C70.5765 19.9608 70.4704 19.4081 70.4704 18.714V8.34126Z" fill="#212121" fill-opacity="0.87"/>
<path d="M85.1523 17.0656L87.9383 7.27121H89.2879L88.5071 11.079L85.509 21.3072H84.169L85.1523 17.0656ZM82.2699 7.27121L84.4871 16.8728L85.1523 21.3072H83.822L80.419 7.27121H82.2699ZM92.8933 16.8631L95.0623 7.27121H96.9229L93.5296 21.3072H92.1992L92.8933 16.8631ZM89.4904 7.27121L92.1992 17.0656L93.1825 21.3072H91.8425L88.9505 11.079L88.16 7.27121H89.4904Z" fill="#212121" fill-opacity="0.87"/>
<path d="M102.736 21.5C102.01 21.5 101.351 21.3779 100.76 21.1337C100.175 20.883 99.6703 20.5328 99.2461 20.0829C98.8284 19.633 98.5071 19.0996 98.2821 18.4826C98.0572 17.8657 97.9447 17.1909 97.9447 16.4582V16.0533C97.9447 15.205 98.0701 14.4499 98.3207 13.7879C98.5713 13.1195 98.912 12.554 99.3425 12.0913C99.7731 11.6285 100.262 11.2783 100.808 11.0405C101.354 10.8027 101.92 10.6838 102.505 10.6838C103.25 10.6838 103.893 10.8123 104.433 11.0694C104.979 11.3265 105.425 11.6864 105.772 12.1491C106.12 12.6054 106.377 13.1452 106.544 13.7686C106.711 14.3856 106.794 15.0604 106.794 15.7931V16.5932H99.0051V15.1375H105.011V15.0026C104.985 14.5398 104.889 14.09 104.722 13.653C104.561 13.2159 104.304 12.856 103.951 12.5733C103.597 12.2905 103.115 12.1491 102.505 12.1491C102.1 12.1491 101.727 12.2359 101.386 12.4094C101.046 12.5765 100.753 12.8271 100.509 13.1613C100.265 13.4955 100.075 13.9036 99.9402 14.3856C99.8053 14.8676 99.7378 15.4235 99.7378 16.0533V16.4582C99.7378 16.9531 99.8053 17.419 99.9402 17.856C100.082 18.2866 100.284 18.6658 100.548 18.9936C100.817 19.3213 101.142 19.5784 101.521 19.7648C101.907 19.9512 102.344 20.0443 102.832 20.0443C103.462 20.0443 103.996 19.9158 104.433 19.6587C104.87 19.4017 105.252 19.0578 105.58 18.6272L106.659 19.4852C106.434 19.8258 106.148 20.1504 105.801 20.4589C105.454 20.7674 105.027 21.018 104.519 21.2108C104.018 21.4036 103.424 21.5 102.736 21.5Z" fill="#212121" fill-opacity="0.87"/>
<path d="M115.027 19.5238V14.1542C115.027 13.7429 114.943 13.3862 114.776 13.0842C114.616 12.7757 114.371 12.5379 114.044 12.3708C113.716 12.2037 113.311 12.1202 112.829 12.1202C112.379 12.1202 111.984 12.1973 111.643 12.3515C111.309 12.5058 111.046 12.7082 110.853 12.9589C110.666 13.2095 110.573 13.4794 110.573 13.7686H108.79C108.79 13.3959 108.886 13.0263 109.079 12.66C109.272 12.2937 109.548 11.9627 109.908 11.6671C110.274 11.365 110.711 11.1272 111.219 10.9537C111.733 10.7738 112.305 10.6838 112.935 10.6838C113.693 10.6838 114.362 10.8123 114.94 11.0694C115.525 11.3265 115.981 11.7153 116.309 12.2359C116.643 12.75 116.81 13.3959 116.81 14.1735V19.0321C116.81 19.3792 116.839 19.7487 116.897 20.1407C116.961 20.5328 117.055 20.8702 117.177 21.153V21.3072H115.316C115.226 21.1015 115.156 20.8284 115.104 20.4878C115.053 20.1407 115.027 19.8194 115.027 19.5238ZM115.335 14.9833L115.355 16.2365H113.552C113.044 16.2365 112.591 16.2783 112.193 16.3618C111.794 16.4389 111.46 16.5578 111.19 16.7185C110.92 16.8792 110.715 17.0816 110.573 17.3258C110.432 17.5636 110.361 17.8432 110.361 18.1645C110.361 18.4923 110.435 18.7911 110.583 19.0611C110.731 19.331 110.952 19.5463 111.248 19.7069C111.55 19.8612 111.92 19.9383 112.357 19.9383C112.903 19.9383 113.385 19.8226 113.803 19.5913C114.22 19.3599 114.551 19.0771 114.796 18.7429C115.046 18.4087 115.181 18.0842 115.201 17.7693L115.962 18.6272C115.917 18.8972 115.795 19.196 115.596 19.5238C115.397 19.8515 115.13 20.1665 114.796 20.4685C114.468 20.7641 114.076 21.0116 113.62 21.2108C113.17 21.4036 112.662 21.5 112.096 21.5C111.389 21.5 110.769 21.3618 110.236 21.0855C109.709 20.8091 109.298 20.4396 109.002 19.9769C108.713 19.5077 108.568 18.9839 108.568 18.4055C108.568 17.8464 108.677 17.3548 108.896 16.9306C109.114 16.5 109.429 16.1433 109.841 15.8605C110.252 15.5713 110.747 15.3528 111.325 15.205C111.904 15.0572 112.549 14.9833 113.263 14.9833H115.335Z" fill="#212121" fill-opacity="0.87"/>
<path d="M123.983 10.8766V12.2455H118.343V10.8766H123.983ZM120.252 8.34126H122.035V18.7237C122.035 19.0771 122.09 19.3438 122.199 19.5238C122.308 19.7037 122.45 19.8226 122.623 19.8805C122.797 19.9383 122.983 19.9672 123.183 19.9672C123.33 19.9672 123.485 19.9544 123.645 19.9287C123.812 19.8965 123.938 19.8708 124.021 19.8515L124.031 21.3072C123.889 21.3522 123.703 21.394 123.472 21.4325C123.247 21.4775 122.974 21.5 122.652 21.5C122.215 21.5 121.814 21.4132 121.447 21.2397C121.081 21.0662 120.789 20.777 120.57 20.3721C120.358 19.9608 120.252 19.4081 120.252 18.714V8.34126Z" fill="#212121" fill-opacity="0.87"/>
<path d="M127.858 6.5V21.3072H126.075V6.5H127.858ZM127.434 15.6967L126.692 15.6677C126.698 14.9544 126.804 14.2956 127.01 13.6915C127.215 13.081 127.505 12.5508 127.877 12.1009C128.25 11.651 128.693 11.304 129.208 11.0598C129.728 10.8091 130.303 10.6838 130.933 10.6838C131.447 10.6838 131.91 10.7545 132.321 10.8959C132.733 11.0308 133.083 11.2494 133.372 11.5514C133.668 11.8535 133.893 12.2455 134.047 12.7275C134.201 13.2031 134.278 13.7847 134.278 14.4724V21.3072H132.485V14.4531C132.485 13.9068 132.405 13.4698 132.244 13.142C132.084 12.8078 131.849 12.5668 131.54 12.419C131.232 12.2648 130.853 12.1877 130.403 12.1877C129.96 12.1877 129.555 12.2808 129.188 12.4672C128.828 12.6536 128.517 12.9107 128.253 13.2384C127.996 13.5662 127.794 13.9422 127.646 14.3663C127.505 14.7841 127.434 15.2275 127.434 15.6967Z" fill="#212121" fill-opacity="0.87"/>
<path d="M141.277 21.5C140.551 21.5 139.892 21.3779 139.301 21.1337C138.716 20.883 138.211 20.5328 137.787 20.0829C137.37 19.633 137.048 19.0996 136.823 18.4826C136.598 17.8657 136.486 17.1909 136.486 16.4582V16.0533C136.486 15.205 136.611 14.4499 136.862 13.7879C137.112 13.1195 137.453 12.554 137.884 12.0913C138.314 11.6285 138.803 11.2783 139.349 11.0405C139.895 10.8027 140.461 10.6838 141.046 10.6838C141.791 10.6838 142.434 10.8123 142.974 11.0694C143.52 11.3265 143.967 11.6864 144.314 12.1491C144.661 12.6054 144.918 13.1452 145.085 13.7686C145.252 14.3856 145.335 15.0604 145.335 15.7931V16.5932H137.546V15.1375H143.552V15.0026C143.526 14.5398 143.43 14.09 143.263 13.653C143.102 13.2159 142.845 12.856 142.492 12.5733C142.138 12.2905 141.656 12.1491 141.046 12.1491C140.641 12.1491 140.268 12.2359 139.927 12.4094C139.587 12.5765 139.294 12.8271 139.05 13.1613C138.806 13.4955 138.616 13.9036 138.481 14.3856C138.346 14.8676 138.279 15.4235 138.279 16.0533V16.4582C138.279 16.9531 138.346 17.419 138.481 17.856C138.623 18.2866 138.825 18.6658 139.089 18.9936C139.359 19.3213 139.683 19.5784 140.062 19.7648C140.448 19.9512 140.885 20.0443 141.373 20.0443C142.003 20.0443 142.537 19.9158 142.974 19.6587C143.411 19.4017 143.793 19.0578 144.121 18.6272L145.201 19.4852C144.976 19.8258 144.69 20.1504 144.343 20.4589C143.996 20.7674 143.568 21.018 143.06 21.2108C142.559 21.4036 141.965 21.5 141.277 21.5Z" fill="#212121" fill-opacity="0.87"/>
<path d="M149.201 12.5154V21.3072H147.418V10.8766H149.153L149.201 12.5154ZM152.46 10.8188L152.45 12.4769C152.302 12.4447 152.161 12.4255 152.026 12.419C151.897 12.4062 151.749 12.3997 151.582 12.3997C151.171 12.3997 150.808 12.464 150.493 12.5925C150.178 12.7211 149.911 12.901 149.693 13.1324C149.474 13.3638 149.301 13.6401 149.172 13.9614C149.05 14.2763 148.97 14.6234 148.931 15.0026L148.43 15.2918C148.43 14.662 148.491 14.0707 148.613 13.518C148.742 12.9653 148.938 12.4769 149.201 12.0527C149.465 11.6221 149.799 11.2879 150.204 11.0501C150.615 10.8059 151.103 10.6838 151.669 10.6838C151.798 10.6838 151.945 10.6999 152.112 10.732C152.28 10.7577 152.395 10.7866 152.46 10.8188Z" fill="#212121" fill-opacity="0.87"/>
<defs>
<linearGradient id="paint0_linear_108_454" x1="14" y1="0" x2="14" y2="28" gradientUnits="userSpaceOnUse">
<stop stop-color="#9FA8DA"/>
<stop offset="1" stop-color="#5C6BC0"/>
</linearGradient>
<linearGradient id="paint1_linear_108_454" x1="7.76675" y1="8.634" x2="19.686" y2="21.8535" gradientUnits="userSpaceOnUse">
<stop stop-color="#FFEE58"/>
<stop offset="1" stop-color="#FBC02D"/>
</linearGradient>
</defs>
</svg>
