<svg width="24" height="24" viewBox="0 0 24 24" fill="none" xmlns="http://www.w3.org/2000/svg">
<g clip-path="url(#clip0_45_478)">
<path d="M12 10C13.0533 9.9999 14.0881 10.277 15.0003 10.8036C15.9125 11.3301 16.6701 12.0875 17.1968 12.9997C17.7235 13.9118 18.0008 14.9465 18.0008 15.9998C18.0009 17.0531 17.7236 18.0879 17.197 19H20C20.2652 19 20.5196 19.1054 20.7071 19.2929C20.8946 19.4805 21 19.7348 21 20C21 20.2653 20.8946 20.5196 20.7071 20.7072C20.5196 20.8947 20.2652 21 20 21H4C3.73478 21 3.48043 20.8947 3.29289 20.7072C3.10536 20.5196 3 20.2653 3 20C3 19.7348 3.10536 19.4805 3.29289 19.2929C3.48043 19.1054 3.73478 19 4 19H6.803C6.27635 18.0879 5.99911 17.0531 5.99915 15.9998C5.99919 14.9465 6.2765 13.9118 6.80321 12.9997C7.32992 12.0875 8.08747 11.3301 8.9997 10.8036C9.91194 10.277 10.9467 9.9999 12 10ZM12 12C11.2064 12 10.4306 12.236 9.77154 12.6781C9.11244 13.1202 8.59974 13.7484 8.29868 14.4827C7.99762 15.217 7.9218 16.0243 8.08088 16.8018C8.23996 17.5793 8.62673 18.292 9.192 18.8491L9.355 18.9991H14.645C15.2539 18.4616 15.6849 17.7515 15.8804 16.9632C16.076 16.1749 16.027 15.3458 15.7398 14.586C15.4527 13.8263 14.9411 13.1719 14.2731 12.71C13.605 12.2481 12.8122 12.0004 12 12ZM21 15C21.2652 15 21.5196 15.1054 21.7071 15.2929C21.8946 15.4805 22 15.7348 22 16C22 16.2653 21.8946 16.5196 21.7071 16.7072C21.5196 16.8947 21.2652 17 21 17H20C19.7348 17 19.4804 16.8947 19.2929 16.7072C19.1054 16.5196 19 16.2653 19 16C19 15.7348 19.1054 15.4805 19.2929 15.2929C19.4804 15.1054 19.7348 15 20 15H21ZM4 15C4.26522 15 4.51957 15.1054 4.70711 15.2929C4.89464 15.4805 5 15.7348 5 16C5 16.2653 4.89464 16.5196 4.70711 16.7072C4.51957 16.8947 4.26522 17 4 17H3C2.73478 17 2.48043 16.8947 2.29289 16.7072C2.10536 16.5196 2 16.2653 2 16C2 15.7348 2.10536 15.4805 2.29289 15.2929C2.48043 15.1054 2.73478 15 3 15H4ZM4.929 8.92905C5.10119 8.75687 5.33029 8.65344 5.57332 8.63816C5.81635 8.62288 6.0566 8.6968 6.249 8.84605L6.343 8.92905L7.05 9.63605C7.22935 9.81601 7.33347 10.0575 7.34123 10.3114C7.34898 10.5654 7.25978 10.8128 7.09175 11.0033C6.92372 11.1939 6.68945 11.3134 6.43653 11.3374C6.1836 11.3615 5.93099 11.2885 5.73 11.133L5.636 11.05L4.929 10.343C4.74153 10.1555 4.63621 9.90121 4.63621 9.63605C4.63621 9.37088 4.74153 9.11658 4.929 8.92905ZM19.071 8.92905C19.2585 9.11658 19.3638 9.37088 19.3638 9.63605C19.3638 9.90121 19.2585 10.1555 19.071 10.343L18.364 11.05C18.1754 11.2322 17.9228 11.333 17.6606 11.3307C17.3984 11.3284 17.1476 11.2233 16.9622 11.0379C16.7768 10.8525 16.6716 10.6016 16.6693 10.3394C16.667 10.0773 16.7678 9.82465 16.95 9.63605L17.657 8.92905C17.8445 8.74158 18.0988 8.63626 18.364 8.63626C18.6292 8.63626 18.8835 8.74158 19.071 8.92905ZM12.707 2.17305L14.828 4.29405C14.9235 4.38629 14.9997 4.49664 15.0521 4.61864C15.1045 4.74065 15.1321 4.87187 15.1333 5.00465C15.1344 5.13743 15.1091 5.26911 15.0588 5.392C15.0085 5.5149 14.9343 5.62655 14.8404 5.72044C14.7465 5.81434 14.6349 5.88859 14.512 5.93887C14.3891 5.98915 14.2574 6.01445 14.1246 6.0133C13.9918 6.01214 13.8606 5.98456 13.7386 5.93215C13.6166 5.87974 13.5062 5.80356 13.414 5.70805L13 5.29405V8.00005C13 8.26526 12.8946 8.51962 12.7071 8.70716C12.5196 8.89469 12.2652 9.00005 12 9.00005C11.7348 9.00005 11.4804 8.89469 11.2929 8.70716C11.1054 8.51962 11 8.26526 11 8.00005V5.29405L10.586 5.70805C10.3974 5.89021 10.1448 5.991 9.8826 5.98872C9.6204 5.98644 9.36959 5.88127 9.18418 5.69587C8.99877 5.51046 8.8936 5.25965 8.89133 4.99745C8.88905 4.73525 8.98984 4.48265 9.172 4.29405L11.292 2.17305C11.3849 2.08007 11.4952 2.00631 11.6166 1.95599C11.738 1.90566 11.8681 1.87976 11.9995 1.87976C12.1309 1.87976 12.261 1.90566 12.3824 1.95599C12.5038 2.00631 12.6141 2.08007 12.707 2.17305Z" fill="#212121"/>
</g>
<defs>
<clipPath id="clip0_45_478">
<rect width="24" height="24" fill="white"/>
</clipPath>
</defs>
</svg>
