<svg width="24" height="24" viewBox="0 0 24 24" fill="none" xmlns="http://www.w3.org/2000/svg">
<g clip-path="url(#clip0_45_482)">
<path d="M12.0001 10C13.0534 9.99988 14.0882 10.277 15.0004 10.8036C15.9126 11.3301 16.6702 12.0875 17.1969 12.9997C17.7236 13.9118 18.0009 14.9465 18.001 15.9998C18.001 17.0531 17.7238 18.0879 17.1971 19H20.0001C20.2653 19 20.5197 19.1054 20.7072 19.2929C20.8948 19.4805 21.0001 19.7348 21.0001 20C21.0001 20.2652 20.8948 20.5196 20.7072 20.7071C20.5197 20.8947 20.2653 21 20.0001 21H4.00011C3.7349 21 3.48054 20.8947 3.29301 20.7071C3.10547 20.5196 3.00011 20.2652 3.00011 20C3.00011 19.7348 3.10547 19.4805 3.29301 19.2929C3.48054 19.1054 3.7349 19 4.00011 19H6.80311C6.27647 18.0879 5.99923 17.0531 5.99926 15.9998C5.9993 14.9465 6.27661 13.9118 6.80332 12.9997C7.33004 12.0875 8.08758 11.3301 8.99982 10.8036C9.91205 10.277 10.9468 9.99988 12.0001 10ZM12.0001 12C11.2065 12 10.4308 12.236 9.77165 12.6781C9.11255 13.1202 8.59985 13.7483 8.29879 14.4827C7.99773 15.217 7.92192 16.0243 8.08099 16.8018C8.24007 17.5793 8.62684 18.292 9.19211 18.849L9.35511 18.999H14.6451C15.2541 18.4616 15.685 17.7515 15.8805 16.9632C16.0761 16.1749 16.0271 15.3457 15.74 14.586C15.4528 13.8262 14.9412 13.1719 14.2732 12.71C13.6051 12.248 12.8123 12.0004 12.0001 12ZM21.0001 15C21.255 15.0003 21.5001 15.0979 21.6855 15.2729C21.8708 15.4478 21.9823 15.687 21.9973 15.9414C22.0122 16.1959 21.9294 16.4464 21.7658 16.6419C21.6023 16.8373 21.3702 16.9629 21.1171 16.993L21.0001 17H20.0001C19.7452 16.9997 19.5001 16.9021 19.3147 16.7272C19.1294 16.5522 19.0179 16.3131 19.0029 16.0586C18.988 15.8042 19.0708 15.5536 19.2344 15.3582C19.398 15.1627 19.63 15.0371 19.8831 15.007L20.0001 15H21.0001ZM4.00011 15C4.25499 15.0003 4.50015 15.0979 4.68548 15.2729C4.87082 15.4478 4.98235 15.687 4.99728 15.9414C5.01222 16.1959 4.92944 16.4464 4.76585 16.6419C4.60226 16.8373 4.37021 16.9629 4.11711 16.993L4.00011 17H3.00011C2.74523 16.9997 2.50008 16.9021 2.31474 16.7272C2.12941 16.5522 2.01788 16.3131 2.00294 16.0586C1.988 15.8042 2.07079 15.5536 2.23438 15.3582C2.39797 15.1627 2.63002 15.0371 2.88311 15.007L3.00011 15H4.00011ZM6.34311 8.92903L7.05011 9.63603C7.23227 9.82463 7.33307 10.0772 7.33079 10.3394C7.32851 10.6016 7.22334 10.8524 7.03793 11.0378C6.85252 11.2233 6.60171 11.3284 6.33951 11.3307C6.07732 11.333 5.82472 11.2322 5.63611 11.05L4.92911 10.343C4.74695 10.1544 4.64616 9.90182 4.64844 9.63963C4.65072 9.37743 4.75589 9.12662 4.94129 8.94121C5.1267 8.7558 5.37751 8.65063 5.63971 8.64835C5.90191 8.64608 6.15451 8.74687 6.34311 8.92903ZM17.6571 8.92903C17.8371 8.74968 18.0785 8.64555 18.3325 8.6378C18.5864 8.63005 18.8338 8.71924 19.0244 8.88728C19.215 9.05531 19.3344 9.28958 19.3585 9.5425C19.3826 9.79543 19.3095 10.048 19.1541 10.249L19.0711 10.343L18.3641 11.05C18.1842 11.2294 17.9427 11.3335 17.6887 11.3413C17.4348 11.349 17.1874 11.2598 16.9968 11.0918C16.8063 10.9237 16.6868 10.6895 16.6627 10.4366C16.6386 10.1836 16.7117 9.93102 16.8671 9.73003L16.9501 9.63603L17.6571 8.92903ZM12.0001 1.87903C12.2452 1.87909 12.4817 1.96915 12.6648 2.13212C12.8478 2.29508 12.9647 2.5196 12.9931 2.76303L13.0001 2.88003V5.58603L13.4141 5.17103C13.5937 4.98977 13.8357 4.884 14.0907 4.87534C14.3456 4.86669 14.5943 4.95583 14.7857 5.12449C14.9771 5.29316 15.0968 5.52861 15.1203 5.78265C15.1438 6.03669 15.0693 6.29011 14.9121 6.49103L14.8281 6.58603L12.7081 8.70703C12.5359 8.87921 12.3068 8.98264 12.0638 8.99792C11.8208 9.0132 11.5805 8.93928 11.3881 8.79003L11.2931 8.70703L9.17211 6.58603C8.99086 6.40649 8.88508 6.16446 8.87643 5.90948C8.86778 5.6545 8.95691 5.40586 9.12558 5.21445C9.29425 5.02303 9.5297 4.90333 9.78374 4.87982C10.0378 4.85632 10.2912 4.93081 10.4921 5.08803L10.5861 5.17103L11.0001 5.58603V2.88003C11.0001 2.61481 11.1055 2.36046 11.293 2.17292C11.4805 1.98539 11.7349 1.88003 12.0001 1.88003V1.87903Z" fill="#212121"/>
</g>
<defs>
<clipPath id="clip0_45_482">
<rect width="24" height="24" fill="white"/>
</clipPath>
</defs>
</svg>
