<svg width="24" height="24" viewBox="0 0 24 24" fill="none" xmlns="http://www.w3.org/2000/svg">
<path d="M7.20013 4.80008C7.20013 3.52702 7.70585 2.3061 8.60604 1.40591C9.50623 0.505721 10.7271 0 12.0002 0C13.2733 0 14.4942 0.505721 15.3944 1.40591C16.2946 2.3061 16.8003 3.52702 16.8003 4.80008V13.3666C17.615 14.2904 18.1458 15.4296 18.3291 16.6476C18.5123 17.8656 18.3403 19.1105 17.8335 20.2331C17.3267 21.3557 16.5068 22.3083 15.4721 22.9764C14.4374 23.6446 13.2319 24 12.0002 24C10.7685 24 9.563 23.6446 8.5283 22.9764C7.4936 22.3083 6.67367 21.3557 6.16691 20.2331C5.66015 19.1105 5.48808 17.8656 5.67135 16.6476C5.85462 15.4296 6.38545 14.2904 7.20013 13.3666V4.80008ZM12.0002 2.40004C11.3637 2.40004 10.7532 2.6529 10.3031 3.103C9.85303 3.55309 9.60017 4.16355 9.60017 4.80008V14.3602L9.23216 14.7122C8.65606 15.2648 8.25846 15.9771 8.09049 16.7574C7.92253 17.5378 7.99189 18.3506 8.28966 19.0912C8.58743 19.8319 9.09997 20.4665 9.76137 20.9134C10.4228 21.3604 11.2028 21.5992 12.001 21.5992C12.7993 21.5992 13.5792 21.3604 14.2406 20.9134C14.902 20.4665 15.4146 19.8319 15.7124 19.0912C16.0101 18.3506 16.0795 17.5378 15.9115 16.7574C15.7436 15.9771 15.346 15.2648 14.7699 14.7122L14.4002 14.3618V4.80008C14.4002 4.16355 14.1474 3.55309 13.6973 3.103C13.2472 2.6529 12.6367 2.40004 12.0002 2.40004ZM12.8002 8.80015C12.8002 8.58797 12.7159 8.38448 12.5659 8.23445C12.4159 8.08442 12.2124 8.00013 12.0002 8.00013C11.788 8.00013 11.5845 8.08442 11.4345 8.23445C11.2845 8.38448 11.2002 8.58797 11.2002 8.80015V15.3363C10.6664 15.525 10.2165 15.8963 9.93007 16.3847C9.6436 16.873 9.53899 17.4469 9.63473 18.0049C9.73047 18.5629 10.0204 19.0691 10.4533 19.434C10.8861 19.7989 11.434 19.9991 12.0002 19.9991C12.5664 19.9991 13.1143 19.7989 13.5472 19.434C13.98 19.0691 14.2699 18.5629 14.3657 18.0049C14.4614 17.4469 14.3568 16.873 14.0703 16.3847C13.7839 15.8963 13.334 15.525 12.8002 15.3363V8.80015Z" fill="#212121"/>
</svg>
