<svg width="32" height="33" viewBox="0 0 32 33" fill="none" xmlns="http://www.w3.org/2000/svg">
<path d="M16 5.83331C9.33334 5.83331 3.64001 9.97998 1.33334 15.8333C3.64001 21.6866 9.33334 25.8333 16 25.8333C22.6667 25.8333 28.36 21.6866 30.6667 15.8333C28.36 9.97998 22.6667 5.83331 16 5.83331ZM16 22.5C12.32 22.5 9.33334 19.5133 9.33334 15.8333C9.33334 12.1533 12.32 9.16665 16 9.16665C19.68 9.16665 22.6667 12.1533 22.6667 15.8333C22.6667 19.5133 19.68 22.5 16 22.5ZM16 11.8333C13.7867 11.8333 12 13.62 12 15.8333C12 18.0466 13.7867 19.8333 16 19.8333C18.2133 19.8333 20 18.0466 20 15.8333C20 13.62 18.2133 11.8333 16 11.8333Z" fill="#212121" fill-opacity="0.6"/>
</svg>
